<svg viewBox="0 0 1254 1254" width="1254" height="1254" xmlns="http://www.w3.org/2000/svg"><path/><path d="M459 194h29l25 4 17 5 19 8 15 8 17 12 10 9 8 7 7 8 12 15 8 12 2 1h6l4-4 8-12 8-10 9-10 12-12 16-12 19-11 18-8 20-6 17-3 10-1h28l26 4 19 6 17 7 18 10 14 10 11 9 14 14 11 14 11 17 10 21 5 14 6 23 2 14 1 13v20l-1 17-5 24-6 20-7 17h-2l-1 4-5 13-4 8h-2l-2 7-3 5-1 2h-2l-1 4-4 7h-2v3h-2v3h-2l-2 5-13 17-13 16-4 6 11 2 12 4 18 8 14 8 11 8 13 11 11 11 10 13 9 14 8 15 9 25 12 36 21 65 13 42 6 21 3 15 1 8v25l-3 20-6 21-7 16-8 14-11 14-10 11-11 9-15 10-19 9-17 5-16 3-12 1h-16l-21-3-15-4-13-5-19-10-11-8-10-9-13-13-12-17-9-15-8-14-10-16-7-8-10-8-14-8-14-5-7-1H538l-14 3-14 6-11 8-7 6-10 13-15 26-12 19-10 13-17 17-12 9-14 8-12 6-22 7-13 2-12 1h-17l-17-2-17-4-20-8-20-12-9-8-8-7-10-11-11-16-9-17-7-21-3-14-1-7v-33l3-19 6-21 11-33 8-26 12-36 16-49 8-21 9-19 12-18 7-9h2l2-4 10-10 14-11 12-8 17-9 15-6 13-4 8-1-10-13-13-16v-2h-2l-6-9v-2h-2l-4-7-2-5h-2l-3-6v-2h-2l-1-5h-2l-2-7h-2l-2-7h-2l-4-9-4-8-5-13-5-12-6-21-4-25v-33l3-24 6-23 6-16 10-20 10-15 9-11 9-10 9-9 14-11 18-11 16-8 19-7 21-5z" fill="#131c42"/><path d="M459 194h29l25 4 17 5 19 8 15 8 17 12 10 9 8 7 7 8 12 15 8 12 2 1h6l4-4 8-12 8-10 9-10 12-12 16-12 19-11 18-8 20-6 17-3 10-1h28l26 4 19 6 17 7 18 10 14 10 11 9 14 14 11 14 11 17 10 21 5 14 6 23 2 14 1 13v20l-1 17-5 24-6 20-7 17h-2l-1 4-5 13-4 8h-2l-2 7-3 5-1 2h-2l-1 4-4 7h-2v3h-2v3h-2l-2 5-13 17-13 16-4 6-19-2h-51l-14 2-17 5-16 8-12 8-8 7-7 8-9 12-8 14-8 9-12 6-10 2H571l-11-3-10-6-7-8-8-14-12-16-8-8-14-10-16-8-18-6-15-2h-54l-9 1-2 1h-8l-10-13-13-16v-2h-2l-6-9v-2h-2l-4-7-2-5h-2l-3-6v-2h-2l-1-5h-2l-2-7h-2l-2-7h-2l-4-9-4-8-5-13-5-12-6-21-4-25v-33l3-24 6-23 6-16 10-20 10-15 9-11 9-10 9-9 14-11 18-11 16-8 19-7 21-5z" fill="#ed3158"/><path d="m552 385 2 3 26 102 16 64 8 31 5 6 5 2h9l7-4 3-5 19-60 18-57 7-21h2l6 16 16 42 7 17 6 5 3 2h10l8-5 4-6h2l1-4 2-3h2l1-4h2l1-4h2l1-4h2l1-4 2-3h2l1-4h2l1-4h2v-2l2-1h129l8 6 9 3h8l10-3 8-6 4-4-3 9-4 8h-2l-2 7-3 5-1 2h-2l-1 4-4 7h-2v3h-2v3h-2l-2 5-13 17-13 16-4 6-19-2h-51l-14 2-17 5-16 8-12 8-8 7-7 8-9 12-8 14-8 9-12 6-10 2H571l-11-3-10-6-7-8-8-14-12-16-8-8-14-10-16-8-18-6-15-2h-54l-9 1-2 1h-8l-10-13-13-16v-2h-2l-6-9v-2h-2l-4-7-2-5h-2l-3-6v-2h-2l-1-5h-2l-2-7h-2l-2-7h-2l-2-4v-3l177-1 9-2 8-5 7-8 6-14 24-64z" fill="#b01343"/><path d="M398 565h54l15 2 21 7 15 8 14 11 9 9 12 17 6 11 6 7 10 6 11 3h122l10-2 12-6 8-9 9-16 11-14 3-1 2-4 10-8 16-10 15-6 16-4 9-1h51l18 2 22 6 20 9 14 8 11 8 13 11 11 11 10 13 9 14 8 15 9 25 12 36 21 65 13 42 6 21 3 15 1 8v25l-3 20-6 21-7 16-8 14-11 14-10 11-11 9-15 10-19 9-17 5-16 3-12 1h-16l-21-3-15-4-13-5-19-10-11-8-10-9-13-13-12-17-9-15-8-14-10-16-7-8-10-8-14-8-14-5-7-1H538l-14 3-14 6-11 8-7 6-10 13-15 26-12 19-10 13-17 17-12 9-14 8-12 6-22 7-13 2-12 1h-17l-17-2-17-4-20-8-20-12-9-8-8-7-10-11-11-16-9-17-7-21-3-14-1-7v-33l3-19 6-21 11-33 8-26 12-36 16-49 8-21 9-19 12-18 7-9h2l2-4 10-10 14-11 12-8 17-9 15-6 13-4 16-2 2-1zm-2 15-19 3-17 5-11 5-16 8-14 10-13 11-13 14-8 11-5 9-8 15-4 12-4 10-13 40-10 31-19 58-8 26-4 18-1 7v29l3 16 6 20 8 16 8 12 8 10 5 5 13 11 10 7 14 7 16 6 13 3 8 1h28l20-4 15-5 17-8 10-7 9-7 16-16 12-18 16-27 9-14 11-13 13-10 17-9 18-5 6-1h184l17 4 11 4 15 8 13 11 8 9 8 13 13 22 10 16 9 12 5 6 8 7 10 8 10 7 16 8 15 5 13 3 10 1h24l15-2 21-7 21-11 14-11 12-12 11-15 9-17 7-20 3-15 1-8v-22l-2-16-6-23-4-11-4-13-6-19-8-26-22-67-9-27-8-17-10-16-11-13-15-15-17-12-17-9-16-6-16-4-16-2h-49l-16 2-17 6-9 5-11 8-8 7-11 14-8 14-8 10-11 8-3 1v2l-15 3H569l-12-3-12-6-7-6-9-12-3-7h-2v-3h-2v-3h-2l-2-5-12-13-11-8-16-8-13-4-10-2z" fill="#4c55b2"/><path d="M549 316h11l6 4 4 6 26 101 20 79 4 16 5-16 18-58 16-51 3-7 5-5 4-2h9l6 3 5 6 18 47 16 42v2l4-4 11-16 7-8 8-4 33-1h103l4-8 9-8 8-3h13l9 4 8 7 4 8 2 8-1 13-4 6-5 6-8 5-8 2h-8l-11-4-6-5H766v2l-2 1-1 3h-2l-1 4h-2l-2 4-1 3-2 1-1 3-2 1-1 3h-2l-1 4h-2l-2 4-1 3h-2l-2 4-5 5-5 3h-10l-8-6-4-6-16-42-10-25v-4h-2l-3 11-24 76-17 54-7 6-3 1h-9l-6-3-5-6-11-42-18-73-21-82-1-2-21 56-8 20-4 6-7 7-9 4-6 1H320l-3-3-8-20-2-6 3-1h177l7-3 3-4 22-62 15-42 6-16 6-6z" fill="#f4eaf5"/><path d="M396 580h60l17 4 10 4 14 7 13 11 10 12v2h2v3h2v3h2l5 10 8 10 8 6 12 6 10 2h129l12-3h3v-2l8-4 9-8 9-14 7-11 11-13 13-10 10-6 12-5 14-3 9-1h49l21 3 17 5 18 8 15 9 13 10 17 17 11 15 10 18 8 20 10 31-1 7-5-4-4-8-3-15h-2v-2l-4-2-3-10-1-3h-2l-4-8-5-6-10-6-3-1-1-2-3 1-7-4-5-2-7-2-3-1v-3l-7-5-6 1-6-3-7-1-6-5-8-1v2h-3v-2l-10-2-3-1h-14l-13-7h-13l-1 2-14 2-9-2-2-1h-14l-6 3-6 5-13 6-7 1-5 7-10 5-11 5-4 4-9 3-9 5-9 3-2 1h-7l-3-1h-10l-10 2-6 2h-9l-4-1h-22l-4 1-22 1-15-2-12-2-12 4h-7l-5-3-4-3-13-1h-6l-6-4-15-3v-2l-12-3-5 1-1 2h-3l-1 2v-2l-4-2-4-4v-4h-3v-2l-4-1-2-2h-6l-1 2-5-1-7-1-10-6-5-2-6 1h-10l-9-2-5-2-3-1-13 1-5 2h-13l-4 3-6 1h-3l-10 2-8 3-11 4-4 3-4 2-2 3-12 6-5 3-8 6-6 8-5 12-7 6-5 12-2 3h-2l-2 10-8 11-2 7-5 11-3 12-5 10-2 5-5 8-3-1 1-8 12-36 5-17 12-36 6-16 8-15 5-9 10-13 14-15 15-12 18-11 18-8 17-5z" fill="#1e285c"/><path d="M392 661h42l8 4 4 7v50h48l7 3 4 5 1 3v43l-4 6-8 4h-48v47l-4 8-6 4-6 1-39-1-6-5-2-4-1-49-50-1-6-4-4-5-1-3v-41l4-6 5-4 2-1 50-1 1-51 6-7z" fill="#dcd8e9"/><path d="m552 385 2 3 26 102 6 24-1 11-7 3-8 5-7 2h-6v-1l-8 1-9-2-2 1h-17l-10-2-31-3-13-1h-52l-17 3-5 1h-8l-7 2-4 6v13l1 3 4 2 3 7v1l5 1v1h-8l-10-13-13-16v-2h-2l-6-9v-2h-2l-4-7-2-5h-2l-3-6v-2h-2l-1-5h-2l-2-7h-2l-2-7h-2l-2-4v-3l177-1 9-2 8-5 7-8 6-14 24-64z" fill="#ed3158"/><path d="M398 565h54l15 2 21 7 15 8 14 11 9 9 12 17 6 11 6 7 10 6 11 3h122l10-2 12-6 8-9 9-16 11-14 3-1 2-4 10-8 16-10 15-6 16-4 9-1h51l18 2 22 6 20 9 14 8 11 8 13 11 11 11 10 13 9 14 8 15 9 25 9 27v2h-2l-11-31-7-20-1-3-4-2-4-8v-2h-2l-4-5-5-11v-2l-6-2-6-5h-5v2l3 3-1 2-18-18-17-12-17-9-16-6-16-4-16-2h-49l-16 2-17 6-9 5-11 8-7 6-11 14-8 14-8 10-10 8-5 1v2l-15 4H569l-12-3-12-6-8-7-9-12-2-4v-3h-2v-3h-2v-3h-2l-6-8-8-9-11-8-16-8-13-4-10-2h-60l-19 3-17 5-11 5-16 8-14 10-13 11-12 13-8 11-5 9-8 15-4 12-4 10-13 40-10 31-13 40-2 1 1-7-4 3h-2l-3 9v7l-4 3-4 2-2 5-1 8-3 4h-2l-2 8h-1l1-8 9-29 18-54 16-49 9-27 8-20 9-17 12-17 4-5h2l2-4 10-10 14-11 12-8 17-9 15-6 13-4 16-2 2-1z" fill="#8d79dd"/><path d="M398 565h54l15 2 21 7 15 8 14 11 9 9 12 17 2 5-6-2-5-5-3-7-4-4v-2l-8-1h-5l9 10-1 2-11-12-11-8-16-8-13-4-10-2h-60l-19 3-17 5-11 5-16 8-14 10-13 11-12 13-8 11-5 9-8 15-4 12-4 10-13 40-10 31-13 40-2 1 1-7-4 3h-2l-3 9v7l-4 3-4 2-2 5-1 8-3 4h-2l-2 8h-1l1-8 9-29 18-54 16-49 9-27 8-20 9-17 12-17 4-5h2l2-4 10-10 14-11 12-8 17-9 15-6 13-4 16-2 2-1z" fill="#8d7adf"/><path d="M459 194h29l25 4 17 5 19 8 15 8 17 12 10 9 8 7 7 8 12 15 8 12 2 1h6l4-4 8-12 8-10 9-10 12-12 16-12 19-11 18-8 20-6 17-3 10-1h28l26 4 19 6 17 7 18 10 14 10 11 9 14 14 11 14 11 17 10 21 5 14 6 23 2 14 1 13v20l-1 9h-1l-1-36-3-21-5-19v-3h-2l-5-10-5-12-9-14-3-6-7-8v-2h-2l-7-9-10-10-9-7-5-5-24-16-23-9-15-5-19-4-13-1h-19l-15 1-21 4-21 7-16 8-12 7-16 13-10 9-3 3h-2v2h-2l-2 4-3 4h-2l-2 5-9 11-5 5-6 4-7-1-9-9-6-9-12-14-10-10-22-16-13-9-23-10-18-5-14-3-11-1h-32l-19 3-24 7-27 13-7 5h-2v2l-12 8-15 14h-2v2l-5 5-9 11-8 11-8 12-9 21-3 1v7l-1 1-2 9h-2v9l-2 3-2 14-2 27h-1v-21l3-24 6-23 6-16 10-20 10-15 9-11 9-10 9-9 14-11 18-11 16-8 19-7 21-5z" fill="#db6295"/><path d="M322 775h5l7 4 47 1 5 4v33l1-22 5-9 5-1 10 2h7l5-1h8l10 5 5 10v-17l5-4 47-1 7-3h2l-1 6-8 4h-48v47l-4 8-6 4-6 1-39-1-6-5-2-4-1-49-50-1-6-4-4-5z" fill="#c8c8e0"/><path d="M750 590h2l-1 3-8 7-10 13-10 17-8 9-12 6-10 2H571l-11-3-10-6-7-8-8-14-7-10 1-2 9 13 2-4h9l12 5 5 3 16 4 14 2 9 3 11 1h8l11 1h25l7-1h7l15-5 17-10 10-8 5-1 1-3 17-7 5-1z" fill="#890a2d"/><path d="M764 592h7l-4 6-12 10-11 14-8 14-8 10-10 8-5 1v2l-15 4H569l-12-3-12-6-8-7-9-12-2-4v-3h-2v-3h-2v-3h-2l-4-8-8-9v-1h9l5 2 6 7 4 9 5 2 5 5 8 10 10 6 11 3h122l10-2 7-2v1l7-1 7-9v-2h2l1-5 7-4 7-9 3-6 4-1v-2l10-2v-2h2l1-6z" fill="#7869dd"/><path d="M392 661h42l8 4 4 7v50h48l7 3 4 5 1 3v37h-2l-1-11-1-1-1-21-3-5-3-2h-41l-7-1-5-5-2-8-2-15-2-8-4-2-5-3h-10l-5 2-10 8h-10l-5 25-4 5-9 2-15 1h-22l-7 4h-2l-2 36-2 2-1-3v-36h2l-1-4 8-8 50-1 1-51 6-7z" fill="#f4eaf6"/><path d="M785 722h17l10 5 7 7 5 10v16l-6 12-8 7-8 4h-18l-10-6-7-8-3-5-1-6v-10l3-10 6-8 9-6z" fill="#dcd9e9"/><path d="M912 722h17l11 6 7 8 4 9v13l-4 11-7 8-9 5-2 1h-17l-10-5-7-7-4-8-1-5v-14l6-11 8-7z" fill="#dcd8e9"/><path d="M850 783h14l12 6 8 9 4 12v7l-4 13-8 9-10 5-5 1h-8l-10-3-8-6-4-5-4-9v-15l4-10 6-7 10-6z" fill="#c8c9e0"/><path d="M849 660h14l10 4 8 7 5 8 2 8v9l-5 12-5 6-10 6-3 1h-15l-10-4-5-4-6-9-2-6v-15l4-9 7-8z" fill="#dcd8e9"/><path d="m228 797 1 2-2 11-12 38-4 18-1 7v29l3 16 6 20 8 16 8 12 2 4h-5l4 12 4 2 4 4v2h2l4 8 10 7 2 5 5 2 10 3 5 4 5 2v2l-6-1-16-8-14-9-14-12-7-7-13-17-9-16-6-14-6-21-2-13v-33l3-19 2-8 2-1 2-5 4-4 2-11 3-4 6-3v-8l4-8z" fill="#585ed5"/><path d="m323 782 9 3 50 1 1 1 1 49 4 6 3 2 41 1 8-3 6-4 3 3v7l-4 6-8 9-11 4-4 1h-13l-10-2-9-5-6-8-2-5-3-4 1-6h2l-3-8h-2l-6-8-10-10-3-2-11-2-12-7-8-9-5-7z" fill="#0a112c"/><path d="M549 316h11l6 4 4 6 26 101 2 7v8l-2-3-4-13-1-5-1-2v-7h-2l-1-8-2-4-1-7-2-4v-6h-2l-1-5 1-3h-2l-4-16 1-3h-2l-2-5-3-9-3-6v-7l1-6h-2l-12 3-7 6-3 6-6 17-18 45-9 26-4 7-3 12-7 8-4 3-33 1H319l-2 5-5 3-5-13 2-2h178l7-3 3-4 22-62 15-42 6-16 6-6z" fill="#faf6fa"/><path d="M283 646h1v5l-3 5-8 15-4 12-4 10-13 40-10 31-13 40-2 1 1-7-4 3h-2l-3 9v7l-4 3-4 2-2 5-1 8-3 4h-2l-2 8h-1l1-8 9-29 18-54 12-37h3l1-4h2l2-12 1-3h2l1-4h2l1-9 3-7 7-10 7-9 3-7 4-2z" fill="#7869dd"/><path d="m962 624 7 1 5 5 5 2 5 10 3 5 1 3h2l5 10 5 5 7 20 10 29v2l3 1 16 49 20 64v5l-2-2-9-28v-3h-2l-6-10-2-14h-2l-3-7-6-7-1-2-3-1 7 21-1 3-12-35-14-43-11-33-8-17-10-16-6-7-2-5-3-4z" fill="#595fd5"/><path d="M396 580h60l17 4 10 4 14 7 13 11 3 4-2 2-6-2-7-3-6-6-12-5-12-2-3-2-7-1h-19l-10 1h-31l-9 1-11 3-13 2-10 4-3 2-12 2v2l-7 4-7 3-5 4-12 5-6 11-8 4-5 5-1-2 7-9 12-13 13-11 19-12 15-7 18-6 15-3z" fill="#2f357b"/><path d="M597 777h71l5 3 4 5v7l-4 7-4 2h-73l-5-3-3-6v-6l4-6z" fill="#dcd8e8"/><path d="M878 571h8l5 3 6 2 9 1 6 3v2h8l3-1 16 9 11 8 13 11 11 11 10 13 9 14 8 15 9 25 9 27v2h-2l-11-31-7-20-1-3-4-2-4-8v-2h-2l-4-5-5-11v-2l-6-2-6-5h-5v2l3 3-1 2-18-18-17-12-17-9-16-6-16-4-16-2 1-2-18-1 2-2 5-2z" fill="#7768dd"/><path d="m507 779 1 3-4 10-5 6h-2l-2 4-11 5-12 3-9 6-5 3-1 9-5 3h-4l-2 4v-49l48-1 8-4 4-1zm-124 57 4 5 4 3 41 1 8-3 6-4 3 3v7l-4 6-8 9-11 4-4 1h-13l-10-2-9-5-6-8-2-5-3-4 1-6h3z" fill="#0a112c"/><path d="M850 783h14l12 6 8 9 4 12v7l-2 7-1-4-1-3-4-7-6-1-2-3-8-2h-11l-5 3-9 1-5-1v14l-3 1v7l-2-1-2-6v-15l4-10 6-7 10-6z" fill="#dbd8e9"/><path d="M912 431h13l7 3 1 3v3l-8-2h-12l-9 4-12 13-2 1-130 1-9 4-11 9-3-1 2-5 8-9 8-4 33-1h103l4-8 9-8z" fill="#faf7fa"/><path d="m826 824 3 1 5 9 7 6 7 3 5 1h8l10-3 8-6 3-3 2 1-3 3 3 2v6l-7 12-5 4-12 4-10-1-10-5-7-8-2-6 2-6h-5l-4-6 1-7z" fill="#0a112c"/><path d="M849 660h14l10 4 8 7 5 8 1 6-1 12h-3l-1-7-1-8-8-3-6-5-6-2h-8l-3 3-4 5-2 1h-8l-2 2 1 11-3 9h-3l-2-5v-15l4-9 7-8z" fill="#f4e9f5"/><path d="M594 801h77l-2 2-65 1 3 3 2-3h47l-2 8-9 3-9 1h-26l-8-6-8-2z" fill="#0f1637"/><path d="m894 770 7 6 8 5 3 1h17l8-4 9-8v3l-1 5v6l-9 6-6 9-6 1-9-2-11-4-5-3-5-10-4-5 1-5z" fill="#0b122f"/><path d="M446 786h55l-2 3-5-1-6 1-1 5-6 4-12 2-7 4h-8l-5-2-1 22-1 6h-1z" fill="#060e24"/><path d="m616 561 5 2 6-1 3 1 2 3v8l-2 6 2 4 1 3-7 6-3 1h-9l-6-3 2-8-1-8-1-7z" fill="#dcd8e8"/><path d="M815 580h49l21 3 3 2 6 2-4 1-6 1-11-2-22-1-14-1-7 2-19 1h-14l-5-1-3 1-1 5-12 2-3-1 3-3 16-7 14-3z" fill="#2d3477"/><path d="M356 786h26l1 1v51l-2-2-2-35-7-1h-7l-15-3-5-3-1-5-10-1v-1z" fill="#0c132f"/><path d="M785 722h17l10 5 7 7 5 10v11l-4-4-3-9-3-4v-2l-12-6-6-1-14 3-6 4-4 5-5 12-1 1v7l-2 1-1-4v-10l3-10 6-8 9-6z" fill="#f0e6f3"/><path d="M912 722h17l11 6 7 8 2 10v2l-3-1-5-9v-2l-5-2-8-4h-9l-10 2-9 6-4 11-3 10v4h-2l-1-5v-14l6-11 8-7z" fill="#f1e7f4"/><path d="m813 776 2 1 3 5v7l-6 4-9 1-6 2h-8l-10-3-4-4 1-6 4-1h22z" fill="#0b122f"/><path d="M597 777h71l5 3 3 3-1 4-3-1v-2l-6-1-9 1h-61l-4 4h-2l-1-4 4-5z" fill="#fcf9fb"/><path d="M706 643h2l-2 4-3 2-12 2H577l-6-2v-2l122-1 10-2z" fill="#8978e1"/><path d="M500 776h3l-1 6-8 4h-48v47l-2 2-1-34-1-17 5-4 47-1z" fill="#cccce2"/><path d="M322 775h5l7 4 47 1 5 4-1 42-1 8h-1l-1-47-50-1-6-4-4-5z" fill="#cecde2"/><path d="m389 844 41 1 5 1-3 1 2 4-1 5-6 2-26-1-5-3-1-6-6-3z" fill="#0b122d"/><path d="M850 783h14l12 6 8 9 3 9-2 2v-4l-4-2-6-7-8-5h-19l-6 4-3 1-2 4-4 5-3 13-1 6-2-2v-15l4-10 6-7 10-6z" fill="#ede3f1"/><path d="M671 383h9l4 2v5l-11 2-5 3h-2l-2 5-3 9-3 10-4 12-2 7-3 9h-2l-1 6-4 1 2-10 13-40 4-13 4-5z" fill="#fbf7fb"/><path d="M392 661h42l8 4 2 5-3-1-1 3-8-4h-35l-7 2-2 4-3 4-1 46-3-1h2v-53l6-7z" fill="#f8f3f9"/><path d="m674 791 1 3-2 5-4 2h-73l-2-2-1-3 4-1h71l6-2z" fill="#cccbe1"/><path d="M445 672h1v50h48l7 3 4 5 1 3v37h-2l-1-11-1-1-1-21-3-5-3-2-16-1 1-2 11-1v-2h-47z" fill="#f4ebf6"/><path d="M942 765h4l1 4-7 8-9 5-2 1h-17l-8-4-6-7-1-3 5 1 7 4 10 1 3-3 15-2z" fill="#c8c7df"/><path d="m943 476 1 2-7 15h-2l-2 7-3 5-1 2h-2l-1 4-4 7h-2v3h-2v3h-2l-2 5-10 13-2 1 2-10 7-9 9-16 8-10 2-3-1-5 5-3-1-2 7-5z" fill="#e42d55"/><path d="M849 660h14l10 4 8 7 3 4v3l-3 1-5-5-5-4-9-3h-12l-7 3-9 9-3-2 1-5 7-7z" fill="#f6f1f8"/><path d="M817 763h3v6l-7 8-11 6h-18l-10-6-3-5 2-3 14 7 12 1v-3l6-2 5-1 5-2z" fill="#cac9e0"/><path d="m872 719 3 1v6l-4 5-8 1h-13l-7-3-1-4 1-3 21 1z" fill="#09102b"/><path d="m781 724 5 1h11l-1 2-12 2-5 3-7 9-5 12-1 1v7l-2 1-1-4v-10l3-10 6-8z" fill="#f7f2f8"/><path d="M875 709h4l1 3-8 6-7 3h-15l-4-2-7-5 1-2 5 1 9 2h9z" fill="#cdcbe2"/><path d="m595 778 3 2 1 1h65l3-3 5 1 4 4-1 4-3-1v-2l-6-1-9 1h-61l-4 4h-2l-1-4 4-5z" fill="#f4eaf5"/><path d="m388 837 11 3h31l10-2v3l-6 3h-41l-6-4z" fill="#8b79e2"/><path d="m330 724 48 1 3 2-12 1h-32l-6 3h-2l-2 4-3 2v-7l5-5z" fill="#fdfafc"/><path d="m904 726 2 1-4 6h-2l1 4-3 5-4 13-1 4v4h-2l-1-5v-14l6-11z" fill="#ebdfef"/><path d="M445 672h1v50h48l3 2h-53z" fill="#e5e2ee"/><path d="m642 456 2 1-1 4h-2l1 6-2 4-2 7h-2l1 5-1 3-2 1v6h-3l1 4-5 9-1-3 14-45z" fill="#fbf7fb"/><path d="M444 980v3l-16 16-12 9-14 8-8 4-3-1 18-10 5-5 5-2 8-6 7-6 2-4 4-2z" fill="#595ed1"/><path d="m810 727 4 2 7 8 3 7v11l-4-4-3-9-3-4v-2l-4-2z" fill="#f0e6f3"/><path d="m839 792 3 1-6 8-4 6-3 17-2-2v-15l4-10 4-3z" fill="#f4ebf5"/><path d="m315 614 2 1-7 7-7 13-8 4-5 5-1-2 7-9 12-13z" fill="#28306e"/><path d="M998 662h3l9 25 9 27v2h-2l-11-31-7-20z" fill="#7669d8"/><path d="m776 733 2 1-6 7-5 12-1 1v7l-2 1-1-4v-10l3-10 1-2 2 1h3z" fill="#f4eaf5"/><path d="M912 722h12l-2 5-12 3-8 5h-2v-2h2l4-8z" fill="#f6f0f6"/><path d="m328 724 2 1-5 6v3h-2v41l-2-1v-41l4-6z" fill="#e3e1ef"/><path d="m927 584 5 2 16 10 9 8h-3l-5-3-6-3-7-5-6-3-3-2z" fill="#8675de"/><path d="M448 725h43l3 2-24 1-23-1z" fill="#fdfafc"/><path d="M861 844h6l-1 6-2 2-5 1-3-1-3-5-3-2z" fill="#080f26"/><path d="m826 824 3 1 5 9 3 4h-9l-4-6 1-7z" fill="#0c1330"/><path d="m873 789 4 1 7 8 3 9-2 2v-4l-4-2-6-7-3-2 1-2z" fill="#f0e6f4"/><path d="m937 728 4 1 6 7 2 10v2l-3-1-5-9v-2l-3-1z" fill="#f2e6f2"/><path d="M764 592h7l-4 6-12 10-2 3h-2l2-4 4-4 1-3h2l1-6z" fill="#7b6cdc"/><path d="M300 334h1v9l-2 3-2 14-2 27h-1v-21l3-24z" fill="#e06395"/><path d="m290 1022 12 1 6 3 3 2v2l-16-3-7-3z" fill="#585cce"/><path d="m726 626 1 2-3 6-7 9-2 1h-6l1-3 8-6 6-8z" fill="#8676de"/><path d="m684 462 2 3 3 10-2 2-6-3-1-4 2-7z" fill="#e5325b"/><path d="m936 440 5 1 4 6 2 6-1 4-1-3h-2l-7-11z" fill="#fbf7fa"/><path d="m240 723 1 3-10 29-1 3h-2l3-12 7-21z" fill="#8072db"/><path d="m785 587 4 1-1 5-12 2-3-1 3-3z" fill="#2f367b"/><path d="M600 450h2l7 28v7l-2-4-5-19-2-7z" fill="#faf5fa"/><path d="m539 626 4 2 7 9 6 4v2l-4 1-5-4-2-5-5-3z" fill="#8475dd"/><path d="m807 970 5 2 4 8 19 19-4-1-18-18-6-8z" fill="#6462d8"/><path d="m733 473 2 1 1 3-5 8-5 1-3-3 4-1z" fill="#faf7fa"/><path d="M803 575h6l3 2v2l3 2-12 1-4-2v-2h2v-2z" fill="#7266d9"/><path d="M824 757h1l2 11-3 4-5 1h-3l5-8z" fill="#0d1533"/><path d="m837 839 4 1 7 3 5 1-3 2-4 1-5 1-2-2z" fill="#0f1736"/><path d="m669 470 4 1 1 5-6 7-3 1 3-11z" fill="#db305b"/><path d="M496 592h9l3 4-1 4-4-1-7-6z" fill="#7969df"/><path d="m586 392 2 4 4 15v3h-2v-2h-2l-1-8-2-4z" fill="#f9f4f9"/><path d="M800 725h9l2 7-3 1-6-3-3-4z" fill="#f7f2f9"/><path d="M207 827h1v8l-3 4h-2l-2 8h-1l1-8 3-8h2z" fill="#7669d8"/><path d="M888 806h1l1 21-1 2-6 2 4-14z" fill="#0d1533"/><path d="M305 317h1v7l-1 1-2 9-4 1 4-16z" fill="#d26197"/><path d="m781 782 19 2v1l-9 1-2 1v2h-5z" fill="#060d23"/><path d="M1009 692h3l7 22v2h-2l-8-22z" fill="#7066d7"/><path d="m307 624 1 2-5 9-8 3 2-4z" fill="#30367c"/><path d="m271 1014 6 1 5 4 5 2v2l-6-1-11-5z" fill="#565cce"/><path d="m947 740 2 1 2 4v13l-3 9-2 1 2-8v-14z" fill="#e4e0ef"/><path d="m689 391 3 3 7 20h-2l-4-11-3-2 1-5h-3l-1-4z" fill="#fcf8fb"/><path d="m892 742 2 3 1 8-2 6v4h-2v-18z" fill="#f7f0f8"/><path d="m828 682 2 3 1 7-2 8-2-2v-15z" fill="#faf7fa"/><path d="M624 504h1l-1 8-3 10-2 1-1-10 3-1z" fill="#be2352"/><path d="M444 980v3l-16 16-3 1 2-4 7-6 2-4 4-2z" fill="#6462d7"/><path d="m669 803 2 1-2 4-3 2-5-1v-5z" fill="#0a112c"/><path d="m667 778 5 1 4 4-1 4-3-1v-2l-6-2z" fill="#f3e7f4"/><path d="m959 607 4 2 11 11 4 6-4-2-9-10-4-2-2-2z" fill="#8373dd"/><path d="m608 589 5 2h11l5-2v2l-6 3h-9l-6-3z" fill="#ecc9de"/><path d="m927 726 6 1 4-1 2 7-6-2-6-4z" fill="#fbf7fa"/><path d="M848 721h17l-1 3-15-1z" fill="#19214b"/><path d="m839 792 3 1-7 7-4-1 2-4z" fill="#faf7fa"/><path d="m904 780 5 1 1 4-2 2-4-1-1-5z" fill="#070e24"/><path d="M998 662h3l5 13-1 2-2-1-5-12z" fill="#7065d3"/><path d="m556 642 10 3 5 1v2h-8l-7-4z" fill="#7b70d6"/><path d="M600 450h2l3 12v3h-2l-3-10z" fill="#f9f3f9"/><path d="m699 416 2 2 3 9-3 1-2-4h2v-2h-3z" fill="#fbf7fa"/><path d="m807 970 5 2 5 10-4-2-6-8z" fill="#6361d3"/><path d="M706 437h2l4 11-4-1-1-4 1-2-3-1z" fill="#fbf7fb"/><path d="m904 726 2 1-4 6-5 2 1-4z" fill="#efe5f0"/><path d="m929 604 7 2 2 2-1 1-7-1z" fill="#2d3477"/><path d="M897 589h7v2l4 2-4 1-6-2z" fill="#30367c"/><path d="M716 463h2l5 13-1 4-4-9-2-6z" fill="#faf6fa"/><path d="M297 632v3l-6 9-2-2 7-9z" fill="#242d67"/><path d="M1009 692h3l3 11-3-1z" fill="#6960c9"/><path d="m787 581 4 2-1 3h-8l1-3z" fill="#7768de"/></svg>